<?xml version="1.0" encoding="UTF-8"?>
<!DOCTYPE svg PUBLIC "-//W3C//DTD SVG 1.1//EN" "http://www.w3.org/Graphics/SVG/1.1/DTD/svg11.dtd">
<!-- Creator: CorelDRAW X8 -->
<svg xmlns="http://www.w3.org/2000/svg" xml:space="preserve" width="9.99999in" height="7.43055in" version="1.1" style="shape-rendering:geometricPrecision; text-rendering:geometricPrecision; image-rendering:optimizeQuality; fill-rule:evenodd; clip-rule:evenodd"
viewBox="0 0 10000 7431"
 xmlns:xlink="http://www.w3.org/1999/xlink">
 <defs>
  <style type="text/css">
   <![CDATA[
    .fil0 {fill:black}
    .fil1 {fill:white}
   ]]>
  </style>
 </defs>
 <g id="Layer_x0020_1">
  <metadata id="CorelCorpID_0Corel-Layer"/>
  <rect class="fil0" width="10000" height="7431"/>
  <g id="_2359716562576">
   <path class="fil1" d="M2274 2424c-673,0 -1223,523 -1276,1188l686 286c58,-40 129,-64 204,-64 7,0 14,1 20,1l305 -446 0 -7c0,-268 217,-487 483,-487 266,0 483,219 483,487 0,269 -217,488 -483,488 -4,0 -7,-1 -11,-1l-435 314c0,5 1,11 1,17 0,202 -163,366 -363,366 -175,0 -322,-127 -355,-294l-491 -205c152,542 646,940 1232,940 707,0 1280,-578 1280,-1292 0,-713 -573,-1291 -1280,-1291zm-474 1959l-157 -65c28,58 76,107 140,134 139,59 298,-8 356,-147 28,-68 28,-143 0,-210 -27,-68 -80,-121 -147,-149 -66,-28 -137,-27 -200,-3l162 68c102,42 151,161 108,264 -42,103 -160,151 -262,108zm1218 -1001c0,-179 -145,-324 -322,-324 -177,0 -322,145 -322,324 0,179 145,325 322,325 177,0 322,-146 322,-325zm-563 0c0,-135 108,-244 242,-244 133,0 241,109 241,244 0,134 -108,244 -241,244 -134,0 -242,-110 -242,-244z"/>
   <polygon class="fil1" points="9016,4159 8798,4159 8798,3594 8584,4159 8452,4159 8239,3594 8239,4159 8008,4159 8008,3187 8279,3187 8518,3848 8757,3187 9016,3187 "/>
   <path class="fil1" d="M7434 3200l-167 0 -354 995 206 0 59 -162 324 0 59 162 226 0 -353 -995zm-197 670l118 -353 118 353 -236 0z"/>
   <polygon class="fil1" points="6720,4159 6072,4159 6072,3187 6720,3187 6720,3355 6278,3355 6278,3585 6661,3585 6661,3753 6278,3753 6278,3991 6720,3991 "/>
   <polygon class="fil1" points="5804,3355 5568,3355 5568,4159 5362,4159 5362,3355 5097,3355 5097,3187 5804,3187 "/>
   <path class="fil1" d="M4912 3873c0,200 -176,292 -353,295 -177,0 -294,-42 -353,-130l117 -121c59,53 118,83 236,83 118,0 177,-41 177,-121 0,-73 -59,-106 -118,-118l-118 -14c-177,-24 -265,-115 -265,-274 0,-88 30,-159 88,-215 59,-53 148,-80 236,-80 147,0 236,39 324,112l-118 121c-59,-44 -118,-68 -206,-68 -88,6 -147,39 -147,124 0,68 59,100 118,106l117 18c148,17 265,117 265,282z"/>
  </g>
 </g>
</svg>
